<svg version="1.1" id="Layer_1" xmlns="http://www.w3.org/2000/svg" xmlns:xlink="http://www.w3.org/1999/xlink" x="0px" y="0px"
	 width="100%" viewBox="0 0 866 650" enable-background="new 0 0 866 650" xml:space="preserve">
<path fill="#FEFEFE" opacity="1.000000" stroke="none" 
	d="
M612.000000,651.000000 
	C408.000000,651.000000 204.500000,651.000000 1.000000,651.000000 
	C1.000000,434.333344 1.000000,217.666672 1.000000,1.000000 
	C289.666656,1.000000 578.333313,1.000000 867.000000,1.000000 
	C867.000000,217.666672 867.000000,434.333344 867.000000,651.000000 
	C782.166687,651.000000 697.333313,651.000000 612.000000,651.000000 
M443.499817,602.301880 
	C503.828491,602.302185 564.157288,602.369263 624.485779,602.281555 
	C671.543213,602.213074 710.206543,564.143921 710.253784,517.498474 
	C710.382751,390.174438 710.402649,262.850006 710.249512,135.526001 
	C710.191956,87.624985 671.850952,49.707417 623.990173,49.695621 
	C497.332550,49.664402 370.674927,49.655781 244.017303,49.702629 
	C195.930771,49.720413 157.684067,87.954247 157.670425,136.016022 
	C157.635025,260.840363 157.667801,385.664673 157.710281,510.489014 
	C157.712204,516.146790 157.550858,521.879944 158.353119,527.450195 
	C164.690079,571.448181 200.492874,602.286011 245.013885,602.296265 
	C310.842529,602.311462 376.671143,602.301270 443.499817,602.301880 
z"/>
<path fill="#000217" opacity="1.000000" stroke="none" 
	d="
M442.999817,602.301880 
	C376.671143,602.301270 310.842529,602.311462 245.013885,602.296265 
	C200.492874,602.286011 164.690079,571.448181 158.353119,527.450195 
	C157.550858,521.879944 157.712204,516.146790 157.710281,510.489014 
	C157.667801,385.664673 157.635025,260.840363 157.670425,136.016022 
	C157.684067,87.954247 195.930771,49.720413 244.017303,49.702629 
	C370.674927,49.655781 497.332550,49.664402 623.990173,49.695621 
	C671.850952,49.707417 710.191956,87.624985 710.249512,135.526001 
	C710.402649,262.850006 710.382751,390.174438 710.253784,517.498474 
	C710.206543,564.143921 671.543213,602.213074 624.485779,602.281555 
	C564.157288,602.369263 503.828491,602.302185 442.999817,602.301880 
M294.800079,286.499908 
	C294.798920,337.326447 294.794708,388.152985 294.800415,438.979523 
	C294.801117,445.295044 296.143097,446.662262 302.297485,446.664886 
	C313.295990,446.669525 324.294708,446.687561 335.292969,446.629883 
	C341.461212,446.597504 342.982056,445.058624 342.989227,438.976685 
	C343.009674,421.645660 342.995728,404.314606 342.995422,386.983551 
	C342.995300,380.178223 342.995392,373.372894 342.995392,366.403046 
	C344.049683,366.403046 344.678558,366.390930 345.306854,366.404785 
	C363.340576,366.802246 381.249542,366.237305 398.721558,360.910431 
	C453.480804,344.215332 462.992767,298.091766 451.777466,261.065704 
	C442.968231,231.982986 415.870789,211.962204 382.006927,210.274017 
	C355.423279,208.948776 328.730042,209.762375 302.085510,209.759125 
	C295.513794,209.758316 294.794373,210.745148 294.792755,217.508881 
	C294.787354,240.172546 294.796509,262.836212 294.800079,286.499908 
M506.445557,352.499725 
	C506.446716,381.166077 506.439056,409.832458 506.455536,438.498810 
	C506.459412,445.256073 507.914734,446.705231 514.682739,446.725067 
	C525.349304,446.756287 536.015991,446.763092 546.682556,446.736938 
	C553.755493,446.719604 555.092102,445.359680 555.093079,438.287415 
	C555.098572,396.787628 555.095093,355.287811 555.094666,313.788025 
	C555.094666,311.818481 555.094727,309.848969 555.094727,307.315186 
	C563.663025,307.315186 571.787903,307.382935 579.911011,307.291931 
	C585.541809,307.228851 586.958557,305.730774 586.997192,300.054291 
	C587.048279,292.554871 587.034607,285.054779 587.009460,277.555115 
	C586.989868,271.729370 585.509949,270.224121 579.659546,270.190643 
	C571.567139,270.144318 563.474365,270.179016 555.017700,270.179016 
	C555.484863,259.155548 553.700256,248.633240 558.424133,238.648087 
	C561.716125,231.689713 567.135071,228.194305 574.618103,228.289642 
	C578.551636,228.339737 582.559692,229.098343 586.377808,230.120590 
	C592.235168,231.688828 594.206726,230.556793 594.257812,224.584366 
	C594.331909,215.918762 594.092957,207.247208 594.330139,198.587570 
	C594.464111,193.696289 592.264038,191.167831 587.765747,190.067856 
	C571.436157,186.074738 555.353882,186.323380 540.038452,193.834396 
	C520.450562,203.440704 511.713379,220.849701 508.100494,241.165314 
	C506.433380,250.539536 506.515533,260.224854 505.780304,270.095184 
	C500.969543,270.095184 495.990082,270.043945 491.012177,270.109161 
	C485.714142,270.178528 484.107483,271.723480 484.065063,276.903534 
	C484.000885,284.736237 484.006012,292.570312 484.074188,300.402985 
	C484.121094,305.794067 485.538239,307.185211 490.897919,307.244080 
	C495.982941,307.299896 501.069031,307.256073 506.445648,307.256073 
	C506.445648,322.539612 506.445648,337.019653 506.445557,352.499725 
z"/>
<path fill="#FDFEFD" opacity="1.000000" stroke="none" 
	d="
M294.800079,285.999878 
	C294.796509,262.836212 294.787354,240.172546 294.792755,217.508881 
	C294.794373,210.745148 295.513794,209.758316 302.085510,209.759125 
	C328.730042,209.762375 355.423279,208.948776 382.006927,210.274017 
	C415.870789,211.962204 442.968231,231.982986 451.777466,261.065704 
	C462.992767,298.091766 453.480804,344.215332 398.721558,360.910431 
	C381.249542,366.237305 363.340576,366.802246 345.306854,366.404785 
	C344.678558,366.390930 344.049683,366.403046 342.995392,366.403046 
	C342.995392,373.372894 342.995300,380.178223 342.995422,386.983551 
	C342.995728,404.314606 343.009674,421.645660 342.989227,438.976685 
	C342.982056,445.058624 341.461212,446.597504 335.292969,446.629883 
	C324.294708,446.687561 313.295990,446.669525 302.297485,446.664886 
	C296.143097,446.662262 294.801117,445.295044 294.800415,438.979523 
	C294.794708,388.152985 294.798920,337.326447 294.800079,285.999878 
M353.527222,246.929596 
	C350.092224,246.929596 346.657227,246.929596 343.370056,246.929596 
	C343.370056,274.423645 343.370056,301.131104 343.370056,328.047699 
	C352.066528,328.047699 360.417206,328.514343 368.693726,327.930298 
	C379.172455,327.190796 389.008728,323.828796 396.878540,316.613647 
	C406.938843,307.390259 407.702484,294.957520 407.186188,282.456726 
	C406.560272,267.300690 397.213196,254.169083 382.563110,250.144577 
	C373.597473,247.681610 363.893036,247.908081 353.527222,246.929596 
z"/>
<path fill="#FCFDFD" opacity="1.000000" stroke="none" 
	d="
M506.445618,351.999695 
	C506.445648,337.019653 506.445648,322.539612 506.445648,307.256073 
	C501.069031,307.256073 495.982941,307.299896 490.897919,307.244080 
	C485.538239,307.185211 484.121094,305.794067 484.074188,300.402985 
	C484.006012,292.570312 484.000885,284.736237 484.065063,276.903534 
	C484.107483,271.723480 485.714142,270.178528 491.012177,270.109161 
	C495.990082,270.043945 500.969543,270.095184 505.780304,270.095184 
	C506.515533,260.224854 506.433380,250.539536 508.100494,241.165314 
	C511.713379,220.849701 520.450562,203.440704 540.038452,193.834396 
	C555.353882,186.323380 571.436157,186.074738 587.765747,190.067856 
	C592.264038,191.167831 594.464111,193.696289 594.330139,198.587570 
	C594.092957,207.247208 594.331909,215.918762 594.257812,224.584366 
	C594.206726,230.556793 592.235168,231.688828 586.377808,230.120590 
	C582.559692,229.098343 578.551636,228.339737 574.618103,228.289642 
	C567.135071,228.194305 561.716125,231.689713 558.424133,238.648087 
	C553.700256,248.633240 555.484863,259.155548 555.017700,270.179016 
	C563.474365,270.179016 571.567139,270.144318 579.659546,270.190643 
	C585.509949,270.224121 586.989868,271.729370 587.009460,277.555115 
	C587.034607,285.054779 587.048279,292.554871 586.997192,300.054291 
	C586.958557,305.730774 585.541809,307.228851 579.911011,307.291931 
	C571.787903,307.382935 563.663025,307.315186 555.094727,307.315186 
	C555.094727,309.848969 555.094666,311.818481 555.094666,313.788025 
	C555.095093,355.287811 555.098572,396.787628 555.093079,438.287415 
	C555.092102,445.359680 553.755493,446.719604 546.682556,446.736938 
	C536.015991,446.763092 525.349304,446.756287 514.682739,446.725067 
	C507.914734,446.705231 506.459412,445.256073 506.455536,438.498810 
	C506.439056,409.832458 506.446716,381.166077 506.445618,351.999695 
z"/>
<path fill="#020317" opacity="1.000000" stroke="none" 
	d="
M354.023804,246.928162 
	C363.893036,247.908081 373.597473,247.681610 382.563110,250.144577 
	C397.213196,254.169083 406.560272,267.300690 407.186188,282.456726 
	C407.702484,294.957520 406.938843,307.390259 396.878540,316.613647 
	C389.008728,323.828796 379.172455,327.190796 368.693726,327.930298 
	C360.417206,328.514343 352.066528,328.047699 343.370056,328.047699 
	C343.370056,301.131104 343.370056,274.423645 343.370056,246.929596 
	C346.657227,246.929596 350.092224,246.929596 354.023804,246.928162 
z"/>
</svg>